<?xml version="1.0" encoding="utf-8"?>
<!-- Generator: Adobe Illustrator 22.0.1, SVG Export Plug-In . SVG Version: 6.00 Build 0)  -->
<svg version="1.1" id="Layer_1" xmlns="http://www.w3.org/2000/svg" xmlns:xlink="http://www.w3.org/1999/xlink" x="0px" y="0px"
	 viewBox="0 0 800 1131.6" style="enable-background:new 0 0 800 1131.6;" xml:space="preserve">
<style type="text/css">
	.st0{fill:#FFFFFF;}
	.st1{font-family:'Roboto-Bold';}
	.st2{font-size:18px;}
	.st3{opacity:0.3;}
	.st4{opacity:0.15;fill:url(#SVGID_1_);enable-background:new    ;}
	.st5{fill:none;}
	.st6{opacity:0.15;fill:url(#SVGID_2_);enable-background:new    ;}
	.st7{opacity:0.15;fill:url(#SVGID_3_);enable-background:new    ;}
	.st8{fill:none;stroke:url(#SVGID_4_);stroke-miterlimit:10;}
	.st9{fill:#CEB98E;}
	.st10{font-size:16px;}
	.st11{opacity:0.2;}
	.st12{fill:url(#SVGID_5_);}
	.st13{fill:none;stroke:#FFFFFF;stroke-width:0.5;stroke-linecap:round;stroke-miterlimit:10;}
	.st14{opacity:0.5;}
	.st15{enable-background:new    ;}
	.st16{font-family:'Roboto-Light';}
	.st17{font-size:14px;}
	.st18{fill:url(#SVGID_6_);}
	.st19{fill:url(#SVGID_7_);}
	.st20{opacity:0.5;fill:url(#SVGID_8_);enable-background:new    ;}
	.st21{fill:url(#SVGID_9_);}
	.st22{fill:url(#SVGID_10_);}
	.st23{fill:url(#SVGID_11_);}
	.st24{fill:url(#SVGID_12_);}
	.st25{fill:url(#SVGID_13_);}
	.st26{fill:url(#SVGID_14_);}
	.st27{fill:url(#SVGID_15_);}
	.st28{opacity:0.1;fill:url(#SVGID_16_);enable-background:new    ;}
	
		.st29{opacity:0.3;fill:none;stroke:url(#SVGID_17_);stroke-width:0.5;stroke-linecap:round;stroke-linejoin:round;stroke-miterlimit:10;enable-background:new    ;}
	.st30{fill:#548C95;}
	.st31{opacity:0.1;fill:url(#SVGID_18_);enable-background:new    ;}
	
		.st32{opacity:0.3;fill:none;stroke:url(#SVGID_19_);stroke-width:0.5;stroke-linecap:round;stroke-linejoin:round;stroke-miterlimit:10;enable-background:new    ;}
	
		.st33{opacity:0.5;fill:none;stroke:#FFFFFF;stroke-linecap:round;stroke-miterlimit:10;stroke-dasharray:0,2;enable-background:new    ;}
	.st34{fill:#BBA67C;}
	.st35{opacity:5.000000e-02;fill:url(#SVGID_20_);enable-background:new    ;}
	.st36{opacity:0.1;fill:url(#SVGID_21_);enable-background:new    ;}
	.st37{opacity:0.1;enable-background:new    ;}
	.st38{fill:url(#SVGID_22_);}
	.st39{opacity:5.000000e-02;fill:url(#SVGID_23_);enable-background:new    ;}
	.st40{opacity:5.000000e-02;fill:url(#SVGID_24_);enable-background:new    ;}
	
		.st41{opacity:0.3;fill:none;stroke:url(#SVGID_25_);stroke-width:0.5;stroke-linecap:round;stroke-linejoin:round;stroke-miterlimit:10;enable-background:new    ;}
	.st42{opacity:0.3;enable-background:new    ;}
	.st43{fill:none;stroke:url(#SVGID_26_);stroke-width:0.5;stroke-linecap:round;stroke-linejoin:round;stroke-miterlimit:10;}
	.st44{opacity:5.000000e-02;fill:url(#SVGID_27_);enable-background:new    ;}
	.st45{opacity:0.8;fill:#110C0F;enable-background:new    ;}
</style>
<g>
	<g>
		<text transform="matrix(1 0 0 1 303.2084 71.6754)" class="st0 st1 st2">PROBLEMAS COMUNES</text>
	</g>
	<g class="st3">
		<path class="st0" d="M358.7,735.8c1.7-8.9,3.6-17.7,5-26.6c1.4-8.9,2.5-17.9,3-26.9c0.2-4.5,0.4-9,0.4-13.5c0.1-4.5,0-9-0.4-13.5
			c-0.8-8.9-2.9-17.8-7.1-25.8c-2.1-4-4.7-7.6-7.6-11.1c-1.4-1.7-2.9-3.4-4.4-5.1c-1.5-1.7-2.9-3.5-4.1-5.4c-0.6-1-1.1-2-1.5-3.1
			c-0.3-1.1-0.6-2.3-0.6-3.4c-0.1-2.3,0.5-4.6,1.3-6.7c1.6-4.3,3.9-8.2,6.4-12c2.6-3.7,5.4-7.2,8.5-10.6c1.5-1.7,3.1-3.3,4.7-4.9
			c0.8-0.8,1.7-1.5,2.5-2.3c0.4-0.4,0.9-0.7,1.3-1c0.4-0.5,0.9-0.9,1.5-0.9c-0.6,0.1-1,0.5-1.5,0.8s-0.9,0.7-1.3,1.1
			c-0.9,0.7-1.7,1.5-2.5,2.3c-1.6,1.6-3.1,3.2-4.6,4.9c-3,3.4-5.7,7-8.2,10.7s-4.8,7.7-6.2,11.9c-0.7,2.1-1.3,4.3-1.2,6.5
			c0,1.1,0.3,2.2,0.6,3.2c0.4,1,0.8,2,1.5,3c1.2,1.9,2.6,3.6,4.1,5.3s3,3.4,4.4,5.1c2.9,3.5,5.6,7.2,7.7,11.2
			c4.3,8,6.5,17.1,7.3,26.1c0.4,4.5,0.5,9.1,0.4,13.6c0,4.5-0.2,9-0.5,13.6c-0.6,9-1.6,18-3.1,27"/>
	</g>
	
		<linearGradient id="SVGID_1_" gradientUnits="userSpaceOnUse" x1="212.0473" y1="-3177.3999" x2="212.0473" y2="-3535.6367" gradientTransform="matrix(1 0 0 1 0 3940)">
		<stop  offset="0" style="stop-color:#FFFFFF"/>
		<stop  offset="0.1413" style="stop-color:#FFFFFF;stop-opacity:0.9435"/>
		<stop  offset="1" style="stop-color:#FFFFFF;stop-opacity:0.6"/>
	</linearGradient>
	<path class="st4" d="M312.7,420.3c0,0-1.4,32.8-37.6,81s-59.5,90.9-45.5,124.1c0,0-21.1,20.8-27.9,31.8c0,0-51.2,8.6-69.8,52.5
		s-20.6,52.9-20.6,52.9s13.8-93.7,36.2-133.3c35-61.9,30.3-49.5,83.2-104.6s73.1-68.1,63.1-105c0,0,5.6-14.2,9.4-15.3
		c2.1-0.6,2.7,6.3,6.6,8.6C311.3,413.9,310.9,418.8,312.7,420.3z"/>
	<g>
		<path class="st5" d="M523.4,564.7"/>
	</g>
	<g class="st3">
		<path class="st0" d="M111.5,803.3c-0.8-22.8,0.9-45.6,4.1-68.1c1.6-11.3,3.7-22.5,6.2-33.6s5.5-22.1,9-33
			c3.5-10.9,7.6-21.5,12.3-31.9c1.2-2.6,2.3-5.2,3.6-7.8l3.8-7.7c1.3-2.6,2.7-5,4.1-7.5l2.1-3.7l2.2-3.7
			c5.7-9.9,12.4-19.2,19.4-28.1l5.5-6.6c1.9-2.2,3.8-4.2,5.8-6.3l2.9-3.1c1-1,2-2,3.1-3l6.1-5.9c-16.5,15.7-30.7,33.8-42.2,53.4
			l-2.2,3.7l-2,3.7c-1.3,2.5-2.8,5-4,7.5l-3.8,7.7c-1.3,2.5-2.3,5.2-3.5,7.8c-4.6,10.4-8.6,21-12.1,31.9
			c-3.5,10.8-6.6,21.8-9.2,32.9c-2.5,11.1-4.6,22.3-6.3,33.5c-1.7,11.3-2.9,22.6-3.7,33.9C111.7,780.5,111.2,791.9,111.5,803.3z"/>
	</g>
	<g class="st3">
		<path class="st0" d="M216.6,537.7c4.7-4.3,9.4-8.6,14.1-13c4.7-4.3,9.3-8.7,13.9-13.2c9.1-8.9,18.1-18,26.4-27.6
			c4.2-4.8,8.2-9.7,11.9-14.9c1.8-2.6,3.5-5.3,5-8.1c1.5-2.8,2.6-5.7,3.6-8.8c2-6,3.8-12.2,4.5-18.5c0.3-3.1,0.4-6.4-0.4-9.4
			c-0.4-1.5-1.1-3-1.9-4.4c-0.9-1.3-1.9-2.6-3-3.7c1.1,1.1,2.2,2.3,3.1,3.6c0.9,1.4,1.6,2.8,2,4.4c0.9,3.1,0.9,6.4,0.6,9.6
			c-0.7,6.4-2.4,12.6-4.3,18.7c-0.5,1.5-0.9,3.1-1.5,4.6c-0.5,1.5-1.3,3-2,4.4c-1.5,2.8-3.2,5.5-5,8.2c-3.6,5.3-7.7,10.2-11.9,15.1
			c-8.4,9.6-17.4,18.7-26.6,27.5c-4.6,4.4-9.3,8.7-14.1,13C226.2,529.3,221.4,533.5,216.6,537.7z"/>
	</g>
	
		<linearGradient id="SVGID_2_" gradientUnits="userSpaceOnUse" x1="282.2473" y1="-3434.55" x2="382.7473" y2="-3434.55" gradientTransform="matrix(1 0 0 1 0 3940)">
		<stop  offset="0" style="stop-color:#FFFFFF"/>
		<stop  offset="0.1413" style="stop-color:#FFFFFF;stop-opacity:0.9435"/>
		<stop  offset="1" style="stop-color:#FFFFFF;stop-opacity:0.6"/>
	</linearGradient>
	<path class="st6" d="M282.2,586.5c0,0,0-26.1,1.8-46.1s8.7-34.5,24.7-59.1c16-24.7,22.1-47.1,22.1-56.9c0,0,14.6,1.1,24,13.4
		s19.9,24.3,27.9,24.7c0,0-5.4,1.1-8.7,6.2c-3.3,5.1-21.4,41.1-28.3,46.8s-11.7,14-12.2,19.3c0,0-18.3,14.4-27.7,28.9
		C296.3,578.1,282.2,586.5,282.2,586.5z"/>
	
		<linearGradient id="SVGID_3_" gradientUnits="userSpaceOnUse" x1="343.5139" y1="-3281.3999" x2="367.9751" y2="-3281.3999" gradientTransform="matrix(1 0 0 1 0 3940)">
		<stop  offset="0" style="stop-color:#FFFFFF"/>
		<stop  offset="7.960000e-02" style="stop-color:#FFFFFF;stop-opacity:0.7"/>
		<stop  offset="8.830000e-02" style="stop-color:#FFFFFF;stop-opacity:0.7344"/>
		<stop  offset="0.1413" style="stop-color:#FFFFFF;stop-opacity:0.9435"/>
		<stop  offset="1" style="stop-color:#FFFFFF;stop-opacity:0.6"/>
	</linearGradient>
	<path class="st7" d="M343.5,607.9c0,0-1.8,71.4,21,101.4c0,0,8.8-60.2-1.8-75.6C352,618.4,343.5,607.9,343.5,607.9z"/>
	<g>
		
			<linearGradient id="SVGID_4_" gradientUnits="userSpaceOnUse" x1="3057.6733" y1="4903.2178" x2="3177.2205" y2="4903.2178" gradientTransform="matrix(0.4579 -0.889 -0.889 -0.4579 3109.7837 5796.9438)">
			<stop  offset="0" style="stop-color:#FFFFFF;stop-opacity:0"/>
			<stop  offset="0.9982" style="stop-color:#CEB98E"/>
		</linearGradient>
		<path class="st8" d="M174.8,711.8c25.6,40,29.9,92.1,6.6,137.4"/>
		<g>
			<polygon class="st9" points="169.9,715.8 170.1,703.7 180.3,709.7 			"/>
		</g>
	</g>
	<g>
		<g>
			<text transform="matrix(1 0 0 1 124.6584 875.0448)" class="st0 st1 st10">The spine&apos;s</text>
			<text transform="matrix(1 0 0 1 124.6584 894.2448)" class="st0 st1 st10">curvature</text>
		</g>
	</g>
	<g class="st11">
		<path class="st0" d="M236,616.4c6.7-4,13.3-8.2,19.8-12.5c6.5-4.3,12.9-8.7,19.2-13.3c6.3-4.6,12.4-9.4,18.3-14.5
			s11.3-10.6,16.4-16.6c5.1-5.9,10-12,15.3-17.7s11.1-11.1,17.8-15.2c6.6-4.2,14-7.1,21.6-8.9c1.9-0.5,3.8-0.8,5.8-1.1
			c1.9-0.3,3.9-0.6,5.8-0.7c3.9-0.4,7.8-0.5,11.7-0.6c-3.9,0.1-7.8,0.3-11.7,0.8c-1.9,0.2-3.9,0.6-5.8,0.9c-1.9,0.4-3.8,0.7-5.7,1.3
			c-7.6,1.8-14.8,4.9-21.3,9.1c-6.5,4.2-12.3,9.4-17.6,15.2c-5.3,5.7-10.1,11.8-15.2,17.7s-10.6,11.5-16.6,16.6
			c-5.9,5.1-12.1,9.9-18.4,14.4C262.8,600.3,249.6,608.6,236,616.4z"/>
	</g>
	<g>
		<g>
			<text transform="matrix(1 0 0 1 415.9981 178.7956)" class="st0 st1 st10">Jaqueca</text>
			<text transform="matrix(1 0 0 1 415.9981 197.9956)" class="st0 st1 st10">crónica</text>
		</g>
	</g>
	<g>
		<g>
			<text transform="matrix(1 0 0 1 270.1676 681.8943)" class="st0 st1 st10">Daño en los</text>
			<text transform="matrix(1 0 0 1 270.1676 701.0943)" class="st0 st1 st10">nervios</text>
		</g>
	</g>
	
		<linearGradient id="SVGID_5_" gradientUnits="userSpaceOnUse" x1="189.3573" y1="2557.4199" x2="214.2788" y2="2557.4199" gradientTransform="matrix(1 0 0 -1 0 3230)">
		<stop  offset="0" style="stop-color:#FFFFFF"/>
		<stop  offset="1" style="stop-color:#FFFFFF;stop-opacity:0"/>
	</linearGradient>
	<path class="st12" d="M214.3,679.8c0,0-16.3,0-24.9-9.1c0,0,9.9,4.4,12.4,2.4c0,0,0.1-3.7-0.9-7.7c2.9,5.5,5.3,8.9,9.1,11.3
		L214.3,679.8z"/>
	<line class="st13" x1="209.3" y1="678.2" x2="262.9" y2="678.2"/>
	<line class="st13" x1="229.8" y1="486" x2="291.4" y2="486"/>
	<g class="st14">
		<g>
			<text transform="matrix(1 0 0 1 601.5816 375.0389)" class="st15"><tspan x="0" y="0" class="st0 st16 st17">Dificultad al girar la</tspan><tspan x="0" y="16.8" class="st0 st16 st17">cabeza.</tspan></text>
		</g>
	</g>
	<g class="st14">
		<g>
			<text transform="matrix(1 0 0 1 85.308 595.121)" class="st0 st16 st17">Músculos</text>
			<text transform="matrix(1 0 0 1 91.9044 611.921)" class="st0 st16 st17">tensos</text>
		</g>
	</g>
	<g class="st14">
		<g>
			<text transform="matrix(1 0 0 1 386.1168 665.6971)" class="st0 st16 st17">Músculos</text>
			<text transform="matrix(1 0 0 1 386.1168 682.4971)" class="st0 st16 st17">débiles</text>
		</g>
	</g>
	<g class="st14">
		<g>
			<text transform="matrix(1 0 0 1 583.1146 740.9663)" class="st0 st16 st17">Luz azul</text>
		</g>
	</g>
	<g>
		<g>
			
				<linearGradient id="SVGID_6_" gradientUnits="userSpaceOnUse" x1="479.0245" y1="-3549.3655" x2="585.5245" y2="-3581.7737" gradientTransform="matrix(1 0 0 1 0 3940)">
				<stop  offset="1.800003e-03" style="stop-color:#CEB98E"/>
				<stop  offset="0.161" style="stop-color:#DACAAA;stop-opacity:0.8405"/>
				<stop  offset="0.4075" style="stop-color:#EAE1CF;stop-opacity:0.5935"/>
				<stop  offset="0.6374" style="stop-color:#F6F1E9;stop-opacity:0.3633"/>
				<stop  offset="0.8419" style="stop-color:#FDFBF9;stop-opacity:0.1584"/>
				<stop  offset="1" style="stop-color:#FFFFFF;stop-opacity:0"/>
			</linearGradient>
			<path class="st18" d="M475.7,359.7c11.6,4.4,23.2,8.6,34.8,12.7c11.7,4,23.4,7.8,35.3,11c5.9,1.6,11.9,3,17.9,4.1
				c3,0.5,6,1,9,1.2s6,0.3,8.9-0.2c1.4-0.3,2.7-0.7,3.7-1.4c1-0.7,1.4-1.8,1.4-3.1c-0.1-1.3-0.6-2.7-1.2-4c-0.7-1.3-1.5-2.6-2.4-3.8
				c-1.8-2.4-3.9-4.7-6.1-6.9c-2.2-2.2-4.2-4.6-6.4-6.8l7.1,6c2.4,2,4.6,4.2,6.7,6.6c1,1.2,2,2.5,2.8,3.9s1.5,2.9,1.8,4.7
				c0.1,0.9,0,1.9-0.3,2.8s-1,1.8-1.7,2.4c-1.5,1.2-3.1,1.8-4.7,2.2c-3.3,0.8-6.5,0.9-9.7,0.8s-6.3-0.3-9.5-0.7
				c-6.3-0.7-12.4-1.8-18.6-3c-12.3-2.5-24.3-5.5-36.4-8.8c-12-3.3-24-6.8-35.9-10.5L475.7,359.7z"/>
			<g>
				
					<linearGradient id="SVGID_7_" gradientUnits="userSpaceOnUse" x1="471.5146" y1="-3574.0442" x2="578.0148" y2="-3606.4526" gradientTransform="matrix(1 0 0 1 0 3940)">
					<stop  offset="1.800003e-03" style="stop-color:#CEB98E"/>
					<stop  offset="0.161" style="stop-color:#DACAAA;stop-opacity:0.8405"/>
					<stop  offset="0.4075" style="stop-color:#EAE1CF;stop-opacity:0.5935"/>
					<stop  offset="0.6374" style="stop-color:#F6F1E9;stop-opacity:0.3633"/>
					<stop  offset="0.8419" style="stop-color:#FDFBF9;stop-opacity:0.1584"/>
					<stop  offset="1" style="stop-color:#FFFFFF;stop-opacity:0"/>
				</linearGradient>
				<polygon class="st19" points="473.6,374.8 460.5,359.8 480.1,356 				"/>
			</g>
		</g>
	</g>
	<g>
		<g>
			<text transform="matrix(1 0 0 1 556.251 479.9104)" class="st0 st1 st10">Visión</text>
			<text transform="matrix(1 0 0 1 556.251 499.1104)" class="st0 st1 st10">borrosa</text>
		</g>
	</g>
	<g>
		<text transform="matrix(1 0 0 1 551.6273 994.8086)" class="st0 st1 st10">Pérdida de </text>
		<text transform="matrix(1 0 0 1 551.6273 1014.0085)" class="st0 st1 st10">la capacidad de </text>
		<text transform="matrix(1 0 0 1 551.6273 1033.2086)" class="st15"><tspan x="0" y="0" class="st0 st1 st10">volúmen de la</tspan><tspan x="0" y="19.2" class="st0 st1 st10">capacidad pulmonar.</tspan></text>
	</g>
	<g id="light">
		
			<linearGradient id="SVGID_8_" gradientUnits="userSpaceOnUse" x1="489.0165" y1="-3447.3616" x2="698.8821" y2="-3190.918" gradientTransform="matrix(1 0 0 1 0 3940)">
			<stop  offset="0" style="stop-color:#FFFFFF;stop-opacity:0"/>
			<stop  offset="0.1497" style="stop-color:#FBFDFF;stop-opacity:8.980000e-02"/>
			<stop  offset="0.2828" style="stop-color:#F1F8FF;stop-opacity:0.1697"/>
			<stop  offset="0.4096" style="stop-color:#DEEFFF;stop-opacity:0.2458"/>
			<stop  offset="0.5326" style="stop-color:#C5E2FF;stop-opacity:0.3196"/>
			<stop  offset="0.6529" style="stop-color:#A4D1FF;stop-opacity:0.3917"/>
			<stop  offset="0.771" style="stop-color:#7BBDFF;stop-opacity:0.4626"/>
			<stop  offset="0.8856" style="stop-color:#4CA6FF;stop-opacity:0.5314"/>
			<stop  offset="0.9981" style="stop-color:#168AFF;stop-opacity:0.5988"/>
			<stop  offset="1" style="stop-color:#158AFF;stop-opacity:0.6"/>
		</linearGradient>
		<path class="st20" d="M549.8,438.6c1-2-1-6,0-9c6.9-16.9,10.3-34.2,11.7-51.7l116,374.6l-41.7,11.3l-9,1.4l-64.1,20.9L431.2,578.2
			l0,0c3.7-3.1,8.3-4.5,11.6-8.6c4-5,16,2,20-3c3-4,6-12,12-12c-1-3,2-4,3-5c2-1,4-1,5-2c2-7-1-19,6-20c10,0,25,6,28-6
			c4-17-2-34,4-49c1-3,10-10,10-17L549.8,438.6z"/>
		<g class="st14">
			
				<linearGradient id="SVGID_9_" gradientUnits="userSpaceOnUse" x1="457.488" y1="-3378.9365" x2="460.2947" y2="-3371.2473" gradientTransform="matrix(1 0 0 1 0 3940)">
				<stop  offset="0" style="stop-color:#FFFFFF;stop-opacity:0"/>
				<stop  offset="0.1043" style="stop-color:#FAFCFF;stop-opacity:6.260000e-02"/>
				<stop  offset="0.2346" style="stop-color:#EAF5FF;stop-opacity:0.1408"/>
				<stop  offset="0.3789" style="stop-color:#D1E8FF;stop-opacity:0.2273"/>
				<stop  offset="0.5333" style="stop-color:#ADD6FF;stop-opacity:0.32"/>
				<stop  offset="0.6957" style="stop-color:#7FBFFF;stop-opacity:0.4174"/>
				<stop  offset="0.8622" style="stop-color:#48A4FF;stop-opacity:0.5173"/>
				<stop  offset="1" style="stop-color:#158AFF;stop-opacity:0.6"/>
			</linearGradient>
			<path class="st21" d="M449.1,567.3c0,0,9.5,2.7,13.2-0.2s3.8-11.4,3.8-11.4S462.1,566.4,449.1,567.3z"/>
			
				<linearGradient id="SVGID_10_" gradientUnits="userSpaceOnUse" x1="410.2177" y1="-3374.6863" x2="418.0722" y2="-3353.1687" gradientTransform="matrix(1 0 0 1 0 3940)">
				<stop  offset="0" style="stop-color:#FFFFFF;stop-opacity:0"/>
				<stop  offset="0.1892" style="stop-color:#FCFEFF;stop-opacity:0.1135"/>
				<stop  offset="0.3264" style="stop-color:#F3F9FF;stop-opacity:0.1958"/>
				<stop  offset="0.4472" style="stop-color:#E3F1FF;stop-opacity:0.2683"/>
				<stop  offset="0.5585" style="stop-color:#CDE6FF;stop-opacity:0.3351"/>
				<stop  offset="0.6634" style="stop-color:#B0D7FF;stop-opacity:0.3981"/>
				<stop  offset="0.7635" style="stop-color:#8CC6FF;stop-opacity:0.4581"/>
				<stop  offset="0.8598" style="stop-color:#62B0FF;stop-opacity:0.5159"/>
				<stop  offset="0.9507" style="stop-color:#3299FF;stop-opacity:0.5704"/>
				<stop  offset="1" style="stop-color:#158AFF;stop-opacity:0.6"/>
			</linearGradient>
			<path class="st22" d="M384.5,568.5c0,0,14.5,12.2,27.6,13.6c13.1,1.3,13.3,2.6,27.6-9.4C439.6,572.6,417.4,586.5,384.5,568.5z"/>
			
				<linearGradient id="SVGID_11_" gradientUnits="userSpaceOnUse" x1="475.4273" y1="-3401.762" x2="481.0432" y2="-3386.377" gradientTransform="matrix(1 0 0 1 0 3940)">
				<stop  offset="0" style="stop-color:#FFFFFF;stop-opacity:0"/>
				<stop  offset="0.1892" style="stop-color:#FCFEFF;stop-opacity:0.1135"/>
				<stop  offset="0.3264" style="stop-color:#F3F9FF;stop-opacity:0.1958"/>
				<stop  offset="0.4472" style="stop-color:#E3F1FF;stop-opacity:0.2683"/>
				<stop  offset="0.5585" style="stop-color:#CDE6FF;stop-opacity:0.3351"/>
				<stop  offset="0.6634" style="stop-color:#B0D7FF;stop-opacity:0.3981"/>
				<stop  offset="0.7635" style="stop-color:#8CC6FF;stop-opacity:0.4581"/>
				<stop  offset="0.8598" style="stop-color:#62B0FF;stop-opacity:0.5159"/>
				<stop  offset="0.9507" style="stop-color:#3299FF;stop-opacity:0.5704"/>
				<stop  offset="1" style="stop-color:#158AFF;stop-opacity:0.6"/>
			</linearGradient>
			<path class="st23" d="M469,555.7c0,0,11.2,0.1,12.3-9.1c1-9.2,3.9-16.4,3.9-16.4s-5.5,6.3-6.7,15.2S469,555.7,469,555.7z"/>
			
				<linearGradient id="SVGID_12_" gradientUnits="userSpaceOnUse" x1="503.7077" y1="-3445.0381" x2="516.955" y2="-3408.7468" gradientTransform="matrix(1 0 0 1 0 3940)">
				<stop  offset="0" style="stop-color:#FFFFFF;stop-opacity:0"/>
				<stop  offset="0.1892" style="stop-color:#FCFEFF;stop-opacity:0.1135"/>
				<stop  offset="0.3264" style="stop-color:#F3F9FF;stop-opacity:0.1958"/>
				<stop  offset="0.4472" style="stop-color:#E3F1FF;stop-opacity:0.2683"/>
				<stop  offset="0.5585" style="stop-color:#CDE6FF;stop-opacity:0.3351"/>
				<stop  offset="0.6634" style="stop-color:#B0D7FF;stop-opacity:0.3981"/>
				<stop  offset="0.7635" style="stop-color:#8CC6FF;stop-opacity:0.4581"/>
				<stop  offset="0.8598" style="stop-color:#62B0FF;stop-opacity:0.5159"/>
				<stop  offset="0.9507" style="stop-color:#3299FF;stop-opacity:0.5704"/>
				<stop  offset="1" style="stop-color:#158AFF;stop-opacity:0.6"/>
			</linearGradient>
			<path class="st24" d="M494.7,528.6c0,0,9.6,3.9,16.8,1.6c7.2-2.3,7.1-11.4,6.8-26.3c-0.3-14.9,0.7-25.1,0.7-25.1
				s-4.5,13.9-4.7,27.8S515.3,527.3,494.7,528.6z"/>
			
				<linearGradient id="SVGID_13_" gradientUnits="userSpaceOnUse" x1="524.1729" y1="-3480.5527" x2="528.9778" y2="-3467.3896" gradientTransform="matrix(1 0 0 1 0 3940)">
				<stop  offset="0" style="stop-color:#FFFFFF;stop-opacity:0"/>
				<stop  offset="0.1892" style="stop-color:#FCFEFF;stop-opacity:0.1135"/>
				<stop  offset="0.3264" style="stop-color:#F3F9FF;stop-opacity:0.1958"/>
				<stop  offset="0.4472" style="stop-color:#E3F1FF;stop-opacity:0.2683"/>
				<stop  offset="0.5585" style="stop-color:#CDE6FF;stop-opacity:0.3351"/>
				<stop  offset="0.6634" style="stop-color:#B0D7FF;stop-opacity:0.3981"/>
				<stop  offset="0.7635" style="stop-color:#8CC6FF;stop-opacity:0.4581"/>
				<stop  offset="0.8598" style="stop-color:#62B0FF;stop-opacity:0.5159"/>
				<stop  offset="0.9507" style="stop-color:#3299FF;stop-opacity:0.5704"/>
				<stop  offset="1" style="stop-color:#158AFF;stop-opacity:0.6"/>
			</linearGradient>
			<path class="st25" d="M520,474.8c0,0,12.7-6.1,11.5-21.8C531.6,452.9,528.9,465.1,520,474.8z"/>
			
				<linearGradient id="SVGID_14_" gradientUnits="userSpaceOnUse" x1="884.8577" y1="-3598.9861" x2="886.9114" y2="-3593.3601" gradientTransform="matrix(0.9932 -0.1168 0.1168 0.9932 -9.8293 4221.5278)">
				<stop  offset="0" style="stop-color:#FFFFFF;stop-opacity:0"/>
				<stop  offset="0.1892" style="stop-color:#FCFEFF;stop-opacity:0.1135"/>
				<stop  offset="0.3264" style="stop-color:#F3F9FF;stop-opacity:0.1958"/>
				<stop  offset="0.4472" style="stop-color:#E3F1FF;stop-opacity:0.2683"/>
				<stop  offset="0.5585" style="stop-color:#CDE6FF;stop-opacity:0.3351"/>
				<stop  offset="0.6634" style="stop-color:#B0D7FF;stop-opacity:0.3981"/>
				<stop  offset="0.7635" style="stop-color:#8CC6FF;stop-opacity:0.4581"/>
				<stop  offset="0.8598" style="stop-color:#62B0FF;stop-opacity:0.5159"/>
				<stop  offset="0.9507" style="stop-color:#3299FF;stop-opacity:0.5704"/>
				<stop  offset="1" style="stop-color:#158AFF;stop-opacity:0.6"/>
			</linearGradient>
			<path class="st26" d="M468,532.2c0,0-1.1,13.4-37.8,24.9"/>
			
				<linearGradient id="SVGID_15_" gradientUnits="userSpaceOnUse" x1="2324.425" y1="-3923.49" x2="2327.0718" y2="-3916.2395" gradientTransform="matrix(0.894 -0.4481 0.4481 0.894 169.8936 5054)">
				<stop  offset="0" style="stop-color:#FFFFFF;stop-opacity:0"/>
				<stop  offset="0.1892" style="stop-color:#FCFEFF;stop-opacity:0.1135"/>
				<stop  offset="0.3264" style="stop-color:#F3F9FF;stop-opacity:0.1958"/>
				<stop  offset="0.4472" style="stop-color:#E3F1FF;stop-opacity:0.2683"/>
				<stop  offset="0.5585" style="stop-color:#CDE6FF;stop-opacity:0.3351"/>
				<stop  offset="0.6634" style="stop-color:#B0D7FF;stop-opacity:0.3981"/>
				<stop  offset="0.7635" style="stop-color:#8CC6FF;stop-opacity:0.4581"/>
				<stop  offset="0.8598" style="stop-color:#62B0FF;stop-opacity:0.5159"/>
				<stop  offset="0.9507" style="stop-color:#3299FF;stop-opacity:0.5704"/>
				<stop  offset="1" style="stop-color:#158AFF;stop-opacity:0.6"/>
			</linearGradient>
			<path class="st27" d="M508.2,482.4c0,0,4.6,16.7-34.8,46.8"/>
		</g>
	</g>
	<g>
		
			<linearGradient id="SVGID_16_" gradientUnits="userSpaceOnUse" x1="152.0086" y1="-358.15" x2="152.0086" y2="-437.8529" gradientTransform="matrix(1 0 0 1 0 1364)">
			<stop  offset="0" style="stop-color:#FFFFFF;stop-opacity:0"/>
			<stop  offset="0.1413" style="stop-color:#FFFFFF;stop-opacity:0.1413"/>
			<stop  offset="1" style="stop-color:#FFFFFF"/>
		</linearGradient>
		<path class="st28" d="M172.4,1005.8L172.4,1005.8c0,0,0.8-10.8-1.6-17.2c-2.4-6.5-5-6.9-8.8-10.4s-7.8-6.6-7.7-9.3
			c0.1-2.7,0.9-5.2,0.9-7.2c0.1-2,1.2-2.6,3.4-2.6s4.8,1.1,6.3,0.3s0.4-3,0.8-3.7s1.5-0.9,1.4-1.2c-0.1-0.4-0.7-1-1.5-1
			c0,0,1.6-1,1.6-1.5c0,0-0.5-1.3-1.1-1.9c0,0,2.8-1.3,2.6-2.2s-0.9-1.6-1.8-2.6c-0.9-1-2.4-2.4-2.5-3.3c-0.1-0.9,0.3-1.7,0.3-2.5
			s0.1-1.5-0.4-2.8c-0.6-1.3-0.6-1.3-0.6-1.3s-1.3-3-2.2-4.2s-3.3-5.2-12.1-5.1c0,0-7.1-1-11.6,5.1s-2.8,12.5-1.3,15
			c1.5,2.5,5.6,5.5,4.7,12.1s-1.9,8.8-5.9,17.8c-7,15.7-2.3,28-1.5,29.6"/>
		
			<linearGradient id="SVGID_17_" gradientUnits="userSpaceOnUse" x1="152.0086" y1="-357.9" x2="152.0086" y2="-438.1029" gradientTransform="matrix(1 0 0 1 0 1364)">
			<stop  offset="0" style="stop-color:#FFFFFF;stop-opacity:0"/>
			<stop  offset="1" style="stop-color:#FFFFFF"/>
		</linearGradient>
		<path class="st29" d="M172.4,1005.8L172.4,1005.8c0,0,0.8-10.8-1.6-17.2c-2.4-6.5-5-6.9-8.8-10.4s-7.8-6.6-7.7-9.3
			c0.1-2.7,0.9-5.2,0.9-7.2c0.1-2,1.2-2.6,3.4-2.6s4.8,1.1,6.3,0.3s0.4-3,0.8-3.7s1.5-0.9,1.4-1.2c-0.1-0.4-0.7-1-1.5-1
			c0,0,1.6-1,1.6-1.5c0,0-0.5-1.3-1.1-1.9c0,0,2.8-1.3,2.6-2.2s-0.9-1.6-1.8-2.6c-0.9-1-2.4-2.4-2.5-3.3c-0.1-0.9,0.3-1.7,0.3-2.5
			s0.1-1.5-0.4-2.8c-0.6-1.3-0.6-1.3-0.6-1.3s-1.3-3-2.2-4.2s-3.3-5.2-12.1-5.1c0,0-7.1-1-11.6,5.1s-2.8,12.5-1.3,15
			c1.5,2.5,5.6,5.5,4.7,12.1s-1.9,8.8-5.9,17.8c-7,15.7-2.3,28-1.5,29.6"/>
		<g>
			<path class="st30" d="M146.7,953.1c0.1,3.7-0.4,7.4-1.1,11.1c-0.7,3.7-1.5,7.3-2.6,10.9l-1.6,5.3c-0.5,1.7-0.9,3.5-1.3,5.2
				c-0.7,3.5-0.9,7.1-0.5,10.6c0.3,3.5,1.2,7,2.2,10.6c0.5,1.8,1,3.5,1.5,5.3c0.5,1.8,1.1,3.5,1.5,5.4c0.9,3.7,1.4,7.4,1.3,11.2
				c-0.1,1.9-0.3,3.8-0.8,5.6c-0.5,1.8-1.2,3.6-2.4,5.1c0.5-0.8,0.8-1.7,1-2.6c0.3-0.9,0.4-1.8,0.6-2.7c0.2-1.8,0.3-3.6,0.2-5.4
				c-0.2-3.6-1-7.2-2.1-10.6c-2.2-6.9-5.1-13.9-5.9-21.6c-0.4-3.8-0.1-7.7,0.7-11.5c0.8-3.7,2.2-7.3,3.5-10.7
				c1.2-3.4,2.4-6.9,3.4-10.5C145.3,960.3,146.1,956.7,146.7,953.1z"/>
		</g>
	</g>
	<g>
		
			<linearGradient id="SVGID_18_" gradientUnits="userSpaceOnUse" x1="224.9103" y1="-358.15" x2="224.9103" y2="-435.6815" gradientTransform="matrix(1 0 0 1 0 1364)">
			<stop  offset="0" style="stop-color:#FFFFFF;stop-opacity:0"/>
			<stop  offset="0.1413" style="stop-color:#FFFFFF;stop-opacity:0.1413"/>
			<stop  offset="1" style="stop-color:#FFFFFF"/>
		</linearGradient>
		<path class="st31" d="M238.2,1005.8h0.1c0,0,1.9-11-2.9-19.5c-4.8-8.6-11.5-8.6-12.1-16.8c-0.2-2.7,3.7-3.8,4.8-5.4
			c1.1-1.6,2.4-1.4,4.3-0.2c1.8,1.2,3.3,3.6,5,3.7s2-2.3,2.7-2.6c0.7-0.3,1.8,0.1,1.9-0.2c0.1-0.4,0-1.2-0.7-1.7
			c0,0,1.9,0.1,2.2-0.3c0,0,0.3-1.3,0.1-2.2c0,0,3,0.5,3.4-0.4c0.4-0.9,0.1-1.8,0-3.2c-0.2-1.3-0.7-3.3-0.3-4.1s1.2-1.3,1.7-1.9
			s1-1.2,1.2-2.6s0.2-1.4,0.2-1.4s0.6-3.2,0.5-4.7c0-1.4,0.1-6.2-7.2-11c0,0-5.3-4.8-12.5-2.3c-7.2,2.5-9.4,8.8-9.5,11.8
			s1.6,7.7-2.9,12.7c0,0-11.6,10.3-14.9,17.9c-3.4,7.6-4.6,13.2-3.6,18.6c1,5.4,2.3,12.3,2.3,15.8"/>
		
			<linearGradient id="SVGID_19_" gradientUnits="userSpaceOnUse" x1="224.9103" y1="-357.9" x2="224.9103" y2="-435.9315" gradientTransform="matrix(1 0 0 1 0 1364)">
			<stop  offset="0" style="stop-color:#FFFFFF;stop-opacity:0"/>
			<stop  offset="1" style="stop-color:#FFFFFF"/>
		</linearGradient>
		<path class="st32" d="M238.2,1005.8h0.1c0,0,1.9-11-2.9-19.5c-4.8-8.6-11.5-8.6-12.1-16.8c-0.2-2.7,3.7-3.8,4.8-5.4
			c1.1-1.6,2.4-1.4,4.3-0.2c1.8,1.2,3.3,3.6,5,3.7s2-2.3,2.7-2.6c0.7-0.3,1.8,0.1,1.9-0.2c0.1-0.4,0-1.2-0.7-1.7
			c0,0,1.9,0.1,2.2-0.3c0,0,0.3-1.3,0.1-2.2c0,0,3,0.5,3.4-0.4c0.4-0.9,0.1-1.8,0-3.2c-0.2-1.3-0.7-3.3-0.3-4.1s1.2-1.3,1.7-1.9
			s1-1.2,1.2-2.6s0.2-1.4,0.2-1.4s0.6-3.2,0.5-4.7c0-1.4,0.1-6.2-7.2-11c0,0-5.3-4.8-12.5-2.3c-7.2,2.5-9.4,8.8-9.5,11.8
			s1.6,7.7-2.9,12.7c0,0-11.6,10.3-14.9,17.9c-3.4,7.6-4.6,13.2-3.6,18.6c1,5.4,2.3,12.3,2.3,15.8"/>
		<g>
			<path class="st30" d="M226.3,951.8c0,2-0.7,4.1-1.8,5.8c-1.1,1.8-2.7,3.2-4.5,4.4l-2.6,1.5l-1.1,0.8l-1.1,0.9
				c-1.4,1.3-2.6,2.8-3.6,4.5c-1.1,1.6-1.8,3.4-2.6,5.2c-0.6,1.8-1.2,3.7-1.5,5.6c-0.7,3.8-0.7,7.7-0.1,11.6
				c0.5,3.9,1.5,7.7,2.6,11.5c1.1,3.8,2.6,7.6,3.5,11.6c0.2,1,0.5,2,0.6,3.1l0.2,1.5c0.1,0.5,0.1,1,0.1,1.6c0.1,1,0.1,2.1,0,3.1
				c0,1-0.1,2.1-0.3,3.1c-0.6,4.1-1.8,8-3.2,11.8c0.9-3.9,1.6-7.9,1.8-11.9c0.2-4-0.3-7.9-1.4-11.6c-1.1-3.8-2.7-7.5-4-11.4
				c-1.3-3.9-2.3-7.9-2.9-12c-0.5-4.1-0.5-8.4,0.3-12.5c0.4-2.1,1.1-4.1,1.8-6c0.9-1.9,1.8-3.8,3.1-5.5c1.2-1.7,2.6-3.3,4.3-4.6
				l1.3-0.9c0.4-0.3,0.9-0.6,1.4-0.8l1.4-0.7l1.3-0.6c1.7-0.9,3.3-2.1,4.5-3.6C225.1,955.6,226,953.8,226.3,951.8z"/>
		</g>
	</g>
	<g class="st14">
		<text transform="matrix(1 0 0 1 122.0669 1066.9508)" class="st0 st16 st17">Normal</text>
		<text transform="matrix(1 0 0 1 122.0669 1083.7507)" class="st0 st16 st17">curvature</text>
	</g>
	<g class="st14">
		<text transform="matrix(1 0 0 1 206.3155 1066.9508)" class="st0 st16 st17">Extreme</text>
		<text transform="matrix(1 0 0 1 206.3155 1083.7507)" class="st0 st16 st17">curvature</text>
	</g>
	<g>
		<rect x="151.8" y="478.1" class="st5" width="80.5" height="42.1"/>
		<text transform="matrix(1 0 0 1 151.7955 490.0559)" class="st0 st1 st10">Estres on </text>
		<text transform="matrix(1 0 0 1 151.7955 509.2559)" class="st0 st1 st10">C-spine</text>
	</g>
	<line class="st33" x1="218.2" y1="962.1" x2="258.3" y2="922"/>
	<g>
		<text transform="matrix(1 0 0 1 249.2754 917.8439)" class="st34 st1 st17">45°</text>
	</g>
	<g>
		<text transform="matrix(1 0 0 1 610.5814 214.7684)" class="st34 st1 st17">45°</text>
	</g>
	<line class="st33" x1="547" y1="290.4" x2="615.9" y2="221.5"/>
	
		<linearGradient id="SVGID_20_" gradientUnits="userSpaceOnUse" x1="516.4117" y1="-339.33" x2="516.4117" y2="-353.85" gradientTransform="matrix(1 0 0 1 0 1364)">
		<stop  offset="0" style="stop-color:#FFFFFF;stop-opacity:0"/>
		<stop  offset="0.1413" style="stop-color:#FFFFFF;stop-opacity:0.1413"/>
		<stop  offset="1" style="stop-color:#FFFFFF"/>
	</linearGradient>
	<path class="st35" d="M520.6,1017.6l-0.2-0.4c-0.6-1-1.4-1.7-1.6-2.4c0,0-1.6-0.9-2.2-1.4c0,0-3.3-1.3-4.6-3.2c0,0-0.6,5.6-0.3,7.8
		s0.2,6.7,0.2,6.7s4.8,0,6.4,0c0.3-1.4,2.9-2.5,2.9-4.7C521.2,1019,520.9,1018.2,520.6,1017.6z"/>
	
		<linearGradient id="SVGID_21_" gradientUnits="userSpaceOnUse" x1="496.8627" y1="-330.7799" x2="496.8627" y2="-375.7799" gradientTransform="matrix(1 0 0 1 0 1364)">
		<stop  offset="0" style="stop-color:#FFFFFF;stop-opacity:0"/>
		<stop  offset="0.1413" style="stop-color:#FFFFFF;stop-opacity:0.1413"/>
		<stop  offset="1" style="stop-color:#FFFFFF"/>
	</linearGradient>
	<path class="st36" d="M486.6,1015.4c0,0,0.3-3.5,0.3-4.4c0-1,0-2,0.6-2.6c0.6-0.7,0.2-3.2,1.1-4.2c1-1-0.2-0.8,0.5-2.2
		c0.6-1.5,1.7-1.7,2-3s0.5-2.8,4.7-6.4c4.2-3.6,5.5-4.3,6.6-4.3s2.6,0.1,3.1,2.9c0.5,2.8,1,2.6,1,4.7s-0.4,5.7-0.4,5.7
		s1.7,2.1,1.7,3.4v8.9c0,0,0.9,4.5-1.8,7.2c-2.7,2.7-4.9,5.6-8.1,5.6c0,0-4.8,6.6-8.7,6.6s-2.9-3.8-2.9-3.8
		S485.1,1018.6,486.6,1015.4z"/>
	<g class="st37">
		
			<linearGradient id="SVGID_22_" gradientUnits="userSpaceOnUse" x1="522.2586" y1="-332.0623" x2="522.2586" y2="-376.4869" gradientTransform="matrix(1 0 0 1 0 1364)">
			<stop  offset="0" style="stop-color:#FFFFFF;stop-opacity:0"/>
			<stop  offset="0.1413" style="stop-color:#FFFFFF;stop-opacity:0.1413"/>
			<stop  offset="1" style="stop-color:#FFFFFF"/>
		</linearGradient>
		<path class="st38" d="M511.3,1000.2c-0.2-0.7-1.2-5.3-0.6-7.7c0.6-2.5,1.5-6.8,6.9-4.4s3.9,2.9,5.6,4.5c1.7,1.7,2.2,2.4,4.7,5.8
			c2.5,3.4,3.4,5,3.7,8.9s1.6,0.9,1.6,5c0,4.1,0.8,5.9,0.8,7.9s-0.7,4.2-0.4,4.9c0.3,0.7-0.6,3.7,0.2,4.4s0.9,3-2.1,2.1
			c0,0-6.3-1.7-8.6-5.3c-1.7,0.4-3.8,0.7-4.6-0.4c-0.3-0.4-0.4-0.8-0.3-1.1c0.3-1.4,2.9-2.5,2.9-4.7c0-1-0.2-1.7-0.6-2.4
			c-0.1-0.2-0.2-0.3-0.2-0.4c-0.6-1-1.4-1.7-1.6-2.4c0,0-1.6-0.9-2.2-1.4c0,0-3.3-1.3-4.6-3.2c-0.2-0.2-0.3-0.5-0.4-0.7
			c-0.9-2.3-0.9-4.6-0.5-7.2c0.2-1.5,0.3-1.9,0.4-2L511.3,1000.2L511.3,1000.2z"/>
	</g>
	
		<linearGradient id="SVGID_23_" gradientUnits="userSpaceOnUse" x1="509.5623" y1="-360.7" x2="509.5623" y2="-387.29" gradientTransform="matrix(1 0 0 1 0 1364)">
		<stop  offset="0" style="stop-color:#FFFFFF;stop-opacity:0"/>
		<stop  offset="0.1413" style="stop-color:#FFFFFF;stop-opacity:0.1413"/>
		<stop  offset="1" style="stop-color:#FFFFFF"/>
	</linearGradient>
	<path class="st39" d="M510,976.7c0,0,0.8,5,0.3,8.3c-0.5,3.3-0.5,7.1,0.1,12.2l3.6,2.7l-2.8,3.4l-2.7-2.4l-2.4,2.4l-1.1-3
		c0,0,2.2-1.3,2.2-4.3c0-3-0.3-6.6-0.3-10.9c0-3-0.2-5.8-0.2-8.3"/>
	
		<linearGradient id="SVGID_24_" gradientUnits="userSpaceOnUse" x1="516.4117" y1="-339.33" x2="516.4117" y2="-353.85" gradientTransform="matrix(1 0 0 1 0 1364)">
		<stop  offset="0" style="stop-color:#FFFFFF;stop-opacity:0"/>
		<stop  offset="0.1413" style="stop-color:#FFFFFF;stop-opacity:0.1413"/>
		<stop  offset="1" style="stop-color:#FFFFFF"/>
	</linearGradient>
	<path class="st40" d="M520.6,1017.6l-0.2-0.4c-0.6-1-1.4-1.7-1.6-2.4c0,0-1.6-0.9-2.2-1.4c0,0-3.3-1.3-4.6-3.2c0,0-0.6,5.6-0.3,7.8
		s0.2,6.7,0.2,6.7s4.8,0,6.4,0c0.3-1.4,2.9-2.5,2.9-4.7C521.2,1019,520.9,1018.2,520.6,1017.6z"/>
	
		<linearGradient id="SVGID_25_" gradientUnits="userSpaceOnUse" x1="496.8627" y1="-330.5299" x2="496.8627" y2="-376.0299" gradientTransform="matrix(1 0 0 1 0 1364)">
		<stop  offset="0" style="stop-color:#FFFFFF;stop-opacity:0"/>
		<stop  offset="1" style="stop-color:#FFFFFF"/>
	</linearGradient>
	<path class="st41" d="M486.6,1015.4c0,0,0.3-3.5,0.3-4.4c0-1,0-2,0.6-2.6c0.6-0.7,0.2-3.2,1.1-4.2c1-1-0.2-0.8,0.5-2.2
		c0.6-1.5,1.7-1.7,2-3s0.5-2.8,4.7-6.4c4.2-3.6,5.5-4.3,6.6-4.3s2.6,0.1,3.1,2.9c0.5,2.8,1,2.6,1,4.7s-0.4,5.7-0.4,5.7
		s1.7,2.1,1.7,3.4v8.9c0,0,0.9,4.5-1.8,7.2c-2.7,2.7-4.9,5.6-8.1,5.6c0,0-4.8,6.6-8.7,6.6s-2.9-3.8-2.9-3.8
		S485.1,1018.6,486.6,1015.4z"/>
	<g class="st42">
		
			<linearGradient id="SVGID_26_" gradientUnits="userSpaceOnUse" x1="522.2586" y1="-331.8123" x2="522.2586" y2="-376.7369" gradientTransform="matrix(1 0 0 1 0 1364)">
			<stop  offset="0" style="stop-color:#FFFFFF;stop-opacity:0"/>
			<stop  offset="1" style="stop-color:#FFFFFF"/>
		</linearGradient>
		<path class="st43" d="M511.3,1000.2c-0.2-0.7-1.2-5.3-0.6-7.7c0.6-2.5,1.5-6.8,6.9-4.4s3.9,2.9,5.6,4.5c1.7,1.7,2.2,2.4,4.7,5.8
			c2.5,3.4,3.4,5,3.7,8.9s1.6,0.9,1.6,5c0,4.1,0.8,5.9,0.8,7.9s-0.7,4.2-0.4,4.9c0.3,0.7-0.6,3.7,0.2,4.4s0.9,3-2.1,2.1
			c0,0-6.3-1.7-8.6-5.3c-1.7,0.4-3.8,0.7-4.6-0.4c-0.3-0.4-0.4-0.8-0.3-1.1c0.3-1.4,2.9-2.5,2.9-4.7c0-1-0.2-1.7-0.6-2.4
			c-0.1-0.2-0.2-0.3-0.2-0.4c-0.6-1-1.4-1.7-1.6-2.4c0,0-1.6-0.9-2.2-1.4c0,0-3.3-1.3-4.6-3.2c-0.2-0.2-0.3-0.5-0.4-0.7
			c-0.9-2.3-0.9-4.6-0.5-7.2c0.2-1.5,0.3-1.9,0.4-2L511.3,1000.2L511.3,1000.2z"/>
	</g>
	
		<linearGradient id="SVGID_27_" gradientUnits="userSpaceOnUse" x1="509.5623" y1="-360.7" x2="509.5623" y2="-387.29" gradientTransform="matrix(1 0 0 1 0 1364)">
		<stop  offset="0" style="stop-color:#FFFFFF;stop-opacity:0"/>
		<stop  offset="0.1413" style="stop-color:#FFFFFF;stop-opacity:0.1413"/>
		<stop  offset="1" style="stop-color:#FFFFFF"/>
	</linearGradient>
	<path class="st44" d="M510,976.7c0,0,0.8,5,0.3,8.3c-0.5,3.3-0.5,7.1,0.1,12.2l3.6,2.7l-2.8,3.4l-2.7-2.4l-2.4,2.4l-1.1-3
		c0,0,2.2-1.3,2.2-4.3c0-3-0.3-6.6-0.3-10.9c0-3-0.2-5.8-0.2-8.3"/>
	<rect x="484.7" y="972.5" class="st45" width="50.3" height="25.8"/>
	<line class="st33" x1="483.5" y1="998.8" x2="537.9" y2="998.8"/>
	<g>
		<text transform="matrix(1 0 0 1 496.8453 987.4209)" class="st34 st1 st17">30%</text>
	</g>
	<rect x="264.3" y="87.6" class="st5" width="290.5" height="41.2"/>
	<text transform="matrix(1 0 0 1 264.2811 99.8213)"><tspan x="0" y="0" class="st0 st16 st10">El uso excesivo de celulares aumenta el </tspan><tspan x="0" y="19.2" class="st0 st16 st10">riesgo de desarrollar problemas de salud.</tspan></text>
</g>
</svg>
